<?xml version="1.0" encoding="UTF-8" standalone="no"?>
<svg width="156px" height="47px" viewBox="0 0 156 47" version="1.1" xmlns="http://www.w3.org/2000/svg" xmlns:xlink="http://www.w3.org/1999/xlink">
    <!-- Generator: Sketch 43.2 (39069) - http://www.bohemiancoding.com/sketch -->
    <title>logo</title>
    <desc>Created with Sketch.</desc>
    <defs>
        <polygon id="path-1" points="0.183766507 37.3015873 32.8891292 37.3015873 32.8891292 0.244847619 0.183766507 0.244847619 0.183766507 37.3015873"></polygon>
    </defs>
    <g id="Page-1" stroke="none" stroke-width="1" fill="none" fill-rule="evenodd">
        <g id="TODAY-HOME-PAGE-v2.4" transform="translate(-165.000000, -27.000000)">
            <g id="Header" transform="translate(165.000000, 27.000000)">
                <g id="logo">
                    <path d="M0,10.6903365 L4.93676555,10.6903365 L4.93676555,1.69617778 L11.3126124,1.69617778 L11.3126124,10.6903365 L20.929378,10.6903365 L20.929378,16.1386063 L11.3126124,16.1386063 L11.3126124,28.7816063 C11.3126124,30.7354635 12.0844019,32.8422571 15.7866029,32.8422571 C17.0211675,32.8422571 19.592555,32.534146 21.2376459,32.0716063 L21.2376459,37.6735587 C18.1004785,38.0846222 16.6091483,38.290527 14.3467751,38.290527 C8.27919617,38.290527 4.93676555,36.3374159 4.93676555,30.2729238 L4.93676555,16.1386063 L0,16.1386063 L0,10.6903365 Z" id="Fill-1" fill="#FD6B31"></path>
                    <path d="M47.4638584,23.4369603 C47.4638584,16.9606587 43.2981359,14.288373 38.4643751,14.288373 C33.579112,14.288373 29.4656383,16.9606587 29.4656383,23.4369603 C29.4656383,29.2962937 32.7565665,32.8421825 38.4643751,32.8421825 C44.1729301,32.8421825 47.4638584,29.2962937 47.4638584,23.4369603 M22.9867866,23.5399127 C22.9867866,16.1385317 27.4600306,8.84010317 38.4643751,8.84010317 C49.469466,8.84010317 53.94271,16.1385317 53.94271,23.5399127 C53.94271,34.5386587 46.0240306,38.2904524 38.4643751,38.2904524 C30.905466,38.2904524 22.9867866,34.5386587 22.9867866,23.5399127" id="Fill-3" fill="#FD6B31"></path>
                    <path d="M82.6381263,18.0916429 C80.6840211,16.498119 78.0618775,14.288373 73.4333799,14.288373 C68.5488632,14.288373 63.714356,17.3724683 63.714356,23.5913889 C63.714356,29.655881 68.2913512,32.8421825 73.2281167,32.8421825 C77.5991024,32.8421825 80.1697435,30.7353889 82.6381263,28.8330079 L82.6381263,18.0916429 Z M82.7411311,33.8194841 C81.3013033,35.2063571 78.1133799,38.2904524 71.788289,38.2904524 C63.9718679,38.2904524 57.2355043,32.7399762 57.2355043,23.3854841 C57.2355043,15.0075476 62.9433129,8.84010317 72.0450545,8.84010317 C77.3415904,8.84010317 79.912978,10.6902619 82.6381263,12.643373 L82.6381263,0.000373015873 L89.0147196,0.000373015873 L89.0147196,37.365373 L82.7411311,37.365373 L82.7411311,33.8194841 Z" id="Fill-5" fill="#FD6B31"></path>
                    <path d="M115.086947,23.4369603 C111.384746,23.5913889 108.144574,24.1054048 105.161914,24.8245794 C101.202201,25.7496587 99.3511005,27.0858016 99.3003445,29.5014524 C99.2488421,31.865627 100.790928,33.3561984 103.928096,33.3561984 C108.761856,33.3561984 112.618565,31.2494048 115.086947,29.7588333 L115.086947,23.4369603 Z M121.462794,32.8936587 C121.462794,34.7438175 121.565799,36.5947222 121.977072,37.365373 L115.446718,37.365373 C115.241455,36.4402937 115.086947,35.5152143 115.086947,34.5901349 C112.412555,36.1321825 108.452842,38.2904524 103.002545,38.2904524 C99.3511005,38.2904524 92.3064689,36.7484048 92.3064689,29.9639921 C92.3064689,20.6617222 106.190469,19.3248333 115.086947,18.8108175 L115.086947,17.577627 C115.086947,15.4700873 113.184344,13.9795159 107.938565,13.9795159 C102.076995,13.9795159 100.843177,16.1385317 100.48266,17.6291032 L93.8493014,17.6291032 C95.392134,10.1247698 102.745033,8.84010317 107.887062,8.84010317 C121.206029,8.84010317 121.462794,15.3164048 121.462794,19.1196746 L121.462794,32.8936587 Z" id="Fill-7" fill="#FD6B31"></path>
                    <g id="Group-11" transform="translate(122.411483, 9.520633)">
                        <mask id="mask-2" fill="white">
                            <use xlink:href="#path-1"></use>
                        </mask>
                        <g id="Clip-10"></g>
                        <path d="M1.46983349,31.0313397 C2.29237895,31.2364984 3.68070431,31.6483079 5.37804402,31.6483079 C10.6230775,31.6483079 12.3711732,29.4378159 12.3711732,27.3310222 C12.3711732,26.0456095 12.1144077,24.812419 11.2396134,23.0129905 L0.183766507,0.244847619 L7.17764211,0.244847619 L16.5368957,20.392181 L25.8954029,0.244847619 L32.8892785,0.244847619 L18.5425033,30.0547841 C16.0733742,35.245673 12.0629053,37.3017365 7.02313493,37.3017365 C4.55475215,37.3017365 2.6013933,36.890673 1.46983349,36.4796095 L1.46983349,31.0313397 Z" id="Fill-9" fill="#FD6B31" mask="url(#mask-2)"></path>
                    </g>
                </g>
            </g>
        </g>
    </g>
</svg>